<svg id="Capa_1" enable-background="new 0 0 512 512" height="512" viewBox="0 0 512 512" width="512" xmlns="http://www.w3.org/2000/svg"><g><path d="m461 95c-.001-3.186-1.016-6.354-3-9-12.603-16.804-12.603-45.196 0-62 3.409-4.546 3.957-10.627 1.416-15.708-2.54-5.082-7.735-8.292-13.416-8.292h-340c-30.328 0-55 24.673-55 55v402c0 30.327 24.673 55 55 55h340c8.284 0 15-6.716 15-15v-402c-.003-.001.002.001 0 0zm-355-65h316.118c-4.765 16.09-4.765 33.91 0 50h-316.118c-13.785 0-25-11.215-25-25s11.214-25 25-25zm-25 427v-353.035c7.507 3.849 16 6.035 25 6.035h5v372h-5c-13.786 0-25-11.215-25-25zm60 25v-372h290v372z"/><path d="m399.634 381.447c-8.035-2.008-16.181 2.879-18.188 10.918l-.53 2.123c-2.229 8.913-7.741 16.287-15.053 20.977l-27.465-98.875c-8.483-30.536 5.935-62.987 34.282-77.161.066-.032.158-.079.223-.113 6.14-3.184 9.307-10.151 7.669-16.87-1.638-6.718-7.657-11.446-14.572-11.446h-28.913c-48.831 0-90.834 33.177-102.145 80.68l-29.383 123.409c-7.025-4.703-12.306-11.922-14.475-20.6l-.532-2.127c-2.01-8.038-10.154-12.927-18.19-10.914-8.037 2.009-12.923 10.153-10.914 18.189l.532 2.127c7.247 28.989 33.178 49.235 63.06 49.235h121.922c29.88 0 55.812-20.246 63.061-49.238l.531-2.127c2.006-8.036-2.882-16.179-10.92-18.187zm-157.5 9.553h85.798l8.333 30h-101.274zm21.993-92.371c7.089-29.772 31.058-51.667 60.389-56.586-16.87 23.201-23.104 53.486-15.022 82.577l10.104 36.38h-70.322z"/><path d="m186 201h15v15c0 8.284 6.716 15 15 15s15-6.716 15-15v-15h15c8.284 0 15-6.716 15-15s-6.716-15-15-15h-15v-15c0-8.284-6.716-15-15-15s-15 6.716-15 15v15h-15c-8.284 0-15 6.716-15 15s6.715 15 15 15z"/><circle cx="346" cy="156" r="15"/><circle cx="386" cy="311" r="15"/></g></svg>