<svg id="Capa_1" enable-background="new 0 0 512 512" height="512" viewBox="0 0 512 512" width="512" xmlns="http://www.w3.org/2000/svg"><g><path d="m467 242h-75v-227c0-8.284-6.716-15-15-15h-362c-8.284 0-15 6.716-15 15v452c0 24.813 20.187 45 45 45h362c24.813 0 45-20.187 45-45v-55h45c8.284 0 15-6.716 15-15v-110c0-24.813-20.187-45-45-45zm-437-212h332v140h-332zm15 452c-8.271 0-15-6.729-15-15v-267h332v267c0 5.257.906 10.307 2.57 15zm377-195v180c0 8.271-6.729 15-15 15s-15-6.729-15-15v-195h32.58c-1.665 4.695-2.58 9.741-2.58 15zm60 95h-30v-95c0-8.271 6.729-15 15-15s15 6.729 15 15z"/><path d="m102.485 60.384c-.032 0-.066 0-.099 0-5.522.054-9.956 4.574-9.903 10.097l.275 28.406-23.53-34.073c-2.486-3.601-7.024-5.165-11.205-3.864-4.177 1.302-7.023 5.17-7.023 9.546v59.888c0 5.522 4.478 10 10 10s10-4.478 10-10v-27.81l22.265 32.24c2.794 4.042 7.681 5.817 12.167 4.42 4.625-1.443 7.613-5.711 7.613-10.969l-.562-57.979c-.053-5.489-4.519-9.902-9.998-9.902z"/><path d="m161.229 80c5.522 0 10-4.478 10-10s-4.478-10-10-10h-25.281c-5.522 0-10 4.478-10 10v60c0 5.522 4.478 10 10 10h25.281c5.522 0 10-4.478 10-10s-4.478-10-10-10h-15.281v-10h13.417c5.522 0 10-4.478 10-10s-4.478-10-10-10h-13.417v-10z"/><path d="m261.087 60.687c-5.418-1.076-10.682 2.439-11.76 7.855l-5.023 25.237-8.114-26.34c-1.627-5.277-7.222-8.239-12.501-6.612-3.515 1.083-5.992 3.929-6.781 7.267l-7.953 25.694-5.014-25.345c-1.071-5.417-6.324-8.942-11.75-7.869-5.418 1.071-8.941 6.332-7.869 11.75l11.689 59.1c.094.478.224.947.386 1.406 1.608 4.526 5.901 7.555 10.699 7.555.026 0 .053-.001.079-.001 4.83-.033 9.119-3.128 10.673-7.701.029-.086.058-.173.084-.26l8.695-28.091 8.656 28.096c.041.135.086.269.133.402 1.608 4.526 5.9 7.555 10.699 7.555.025 0 .053-.001.078-.001 4.83-.033 9.119-3.128 10.673-7.701.141-.414.254-.836.339-1.265l11.737-58.972c1.079-5.417-2.438-10.681-7.855-11.759z"/><path d="m316 251c-8.284 0-15 6.716-15 15v95h-30v-65c0-8.284-6.716-15-15-15s-15 6.716-15 15v65h-30v-115c0-8.284-6.716-15-15-15s-15 6.716-15 15v115h-30v-85c0-8.284-6.716-15-15-15s-15 6.716-15 15v85h-30v-115c0-8.284-6.716-15-15-15s-15 6.716-15 15v130c0 8.284 6.716 15 15 15h240c8.284 0 15-6.716 15-15v-110c0-8.284-6.716-15-15-15z"/><path d="m316 421h-240c-8.284 0-15 6.716-15 15s6.716 15 15 15h240c8.284 0 15-6.716 15-15s-6.716-15-15-15z"/><path d="m321.616 91.476c-6.912-2.55-13.379-5.317-15.818-6.38-.334-.367-.461-.845-.378-1.425.178-1.235 1.278-2.244 3.02-2.769 7.184-2.172 14.091 3.266 14.216 3.365 1.729 1.427 3.945 2.285 6.362 2.285 5.523 0 10-4.477 10-10 0-3.072-1.388-5.817-3.568-7.652 0 0-.083-.073-.101-.087-5.594-4.652-18.657-11.287-32.679-7.062-9.225 2.779-15.756 10.089-17.047 19.076-1.219 8.493 2.465 16.666 9.615 21.328.442.288.906.54 1.388.756.351.156 8.687 3.867 18.068 7.327 3.378 1.246 6.627 3.394 6.271 5.384-.356 1.996-3.342 4.761-8.021 4.761-5.27 0-10.315-2.097-13.498-5.608-3.708-4.094-10.032-4.403-14.125-.695s-4.404 10.032-.695 14.125c7.013 7.739 17.335 12.179 28.318 12.179 13.857 0 25.511-8.936 27.709-21.246 1.673-9.362-2.451-21.545-19.037-27.662zm.969-7.272c.022.019.042.04.064.059l-.067-.056z"/></g></svg>