<svg id="Capa_1" enable-background="new 0 0 512 512" height="512" viewBox="0 0 512 512" width="512" xmlns="http://www.w3.org/2000/svg"><g><path d="m310 421v-25c0-19.299-15.701-35-35-35h-80c-19.299 0-35 15.701-35 35v25h-5c-8.284 0-15 6.716-15 15s6.716 15 15 15h160c8.284 0 15-6.716 15-15s-6.716-15-15-15zm-30 0h-90v-25c0-2.757 2.243-5 5-5h80c2.757 0 5 2.243 5 5z"/><path d="m467 191h-57v-96c-.001-3.186-1.016-6.354-3-9-12.603-16.804-12.603-45.196 0-62 3.409-4.546 3.957-10.627 1.417-15.708-2.542-5.082-7.735-8.292-13.417-8.292h-340c-30.327 0-55 24.673-55 55v402c0 30.327 24.673 55 55 55h340c8.284 0 15-6.716 15-15v-216h57c24.813 0 45-20.187 45-45s-20.187-45-45-45zm-412-161h316.118c-4.764 16.09-4.764 33.91 0 50h-316.118c-13.785 0-25-11.215-25-25s11.215-25 25-25zm5 452h-5c-13.785 0-25-11.215-25-25v-353.035c7.507 3.848 16 6.035 25 6.035h5zm320 0h-290v-372h290v81h-80v-20h5c8.284 0 15-6.716 15-15s-6.716-15-15-15h-140c-8.284 0-15 6.716-15 15s6.716 15 15 15h5v130h-5c-8.284 0-15 6.716-15 15s6.716 15 15 15h140c8.284 0 15-6.716 15-15s-6.716-15-15-15h-5v-20h80zm-110-311v130h-70v-130zm197 80h-167v-30h167c8.271 0 15 6.729 15 15s-6.729 15-15 15z"/></g></svg>